<svg xmlns="http://www.w3.org/2000/svg" width="20" height="14" viewBox="0 0 20 14">
  <defs>
    <style>
      .cls-1 {
        fill: #46c215;
        fill-rule: evenodd;
      }
    </style>
  </defs>
  <path id="fmail.svg" class="cls-1" d="M1290,5439.67a2.178,2.178,0,0,1-.32,1.12l-6.32-6.6,6.25-5.1a2.248,2.248,0,0,1,.39,1.24v9.34Zm-10-4.28,8.69-7.1a2.647,2.647,0,0,0-1.19-.29h-15a2.615,2.615,0,0,0-1.19.29Zm2.42-.43-2.01,1.65a0.67,0.67,0,0,1-.82,0l-2.01-1.65-6.4,6.68a2.533,2.533,0,0,0,1.32.36h15a2.533,2.533,0,0,0,1.32-.36Zm-12.03-5.87a2.248,2.248,0,0,0-.39,1.24v9.34a2.178,2.178,0,0,0,.32,1.12l6.32-6.6Z" transform="translate(-1270 -5428)"/>
</svg>
