<svg xmlns="http://www.w3.org/2000/svg" width="19" height="19" viewBox="0 0 19 19">
  <defs>
    <style>
      .cls-1 {
        fill: #46c215;
        fill-rule: evenodd;
      }
    </style>
  </defs>
  <path id="ftel.svg" class="cls-1" d="M1283.25,5280.41l4.75-4.75-4.75-4.75v2.85h-3.8v3.8h3.8v2.85Zm1.9,4.27a10.889,10.889,0,0,1-3.39-.54,0.956,0.956,0,0,0-.97.23l-2.09,2.09a14.293,14.293,0,0,1-6.26-6.26l2.09-2.1a0.937,0.937,0,0,0,.24-0.95,10.519,10.519,0,0,1-.55-3.39,0.95,0.95,0,0,0-.95-0.95h-3.32a0.95,0.95,0,0,0-.95.95,16.141,16.141,0,0,0,16.15,16.14,0.95,0.95,0,0,0,.95-0.95v-3.32A0.95,0.95,0,0,0,1285.15,5284.68Z" transform="translate(-1269 -5270.91)"/>
</svg>
