<svg xmlns="http://www.w3.org/2000/svg" width="19" height="26" viewBox="0 0 19 26">
  <defs>
    <style>
      .cls-1 {
        fill: #d0d0d0;
        fill-rule: evenodd;
      }
    </style>
  </defs>
  <path id="hloc.svg" class="cls-1" d="M1009.5,2044a9.335,9.335,0,0,0-9.5,9.14,8.864,8.864,0,0,0,1.42,4.81l7.54,11.69a0.8,0.8,0,0,0,.67.36h0.01a0.789,0.789,0,0,0,.67-0.37l7.35-11.81a8.832,8.832,0,0,0,1.34-4.68A9.335,9.335,0,0,0,1009.5,2044Zm6.8,13.04-6.68,10.73-6.86-10.63a7.4,7.4,0,0,1-1.19-4,7.931,7.931,0,0,1,15.85,0A7.367,7.367,0,0,1,1016.3,2057.04Zm-6.8-8.47a4.573,4.573,0,1,0,4.75,4.57A4.667,4.667,0,0,0,1009.5,2048.57Zm0,7.63a3.062,3.062,0,1,1,3.17-3.06A3.126,3.126,0,0,1,1009.5,2056.2Z" transform="translate(-1000 -2044)"/>
</svg>
