<svg xmlns="http://www.w3.org/2000/svg" width="44" height="44" viewBox="0 0 44 44">
  <defs>
    <style>
      .cls-1 {
        fill: #3556d3;
        fill-rule: evenodd;
      }
    </style>
  </defs>
  <path id="home.svg" class="cls-1" d="M567.988,2476.03a3.859,3.859,0,0,0-1.339-2.64l-3.806-3.26v-9.27a1.291,1.291,0,0,0-1.289-1.29H556.4a1.277,1.277,0,0,0-1.272,1.29v2.64l-6.524-5.56a3.853,3.853,0,0,0-5.029-.01l-18.223,15.46a3.872,3.872,0,0,0-.418,5.46,3.92,3.92,0,0,0,4.241,1.13v19.73a1.277,1.277,0,0,0,1.272,1.29h31.109a1.291,1.291,0,0,0,1.289-1.29v-19.73A3.869,3.869,0,0,0,567.988,2476.03Zm-10.3-13.88h2.6v5.77l-2.6-2.21v-3.56Zm-6.428,36.27h-10.5v-10.33h10.5v10.33Zm9.023,0H553.82v-11.6a1.285,1.285,0,0,0-1.289-1.29H539.468a1.269,1.269,0,0,0-1.271,1.29v11.6h-6.463v-20.3l14.347-12.17,14.2,12.16v20.31h0Zm4.829-21.25a1.292,1.292,0,0,1-1.818.14l-16.369-14.04a1.29,1.29,0,0,0-1.672,0c-0.349.3-16.477,13.98-16.545,14.04a1.292,1.292,0,0,1-1.684-1.96l18.223-15.45a1.276,1.276,0,0,1,1.679,0l18.046,15.45A1.293,1.293,0,0,1,565.111,2477.17Zm-15.158-4.71h-7.906a1.277,1.277,0,0,0-1.272,1.29v7.74a1.277,1.277,0,0,0,1.272,1.29h7.906a1.291,1.291,0,0,0,1.289-1.29v-7.74A1.291,1.291,0,0,0,549.953,2472.46Zm-1.272,7.74h-5.345v-5.16h5.345v5.16Zm-1.307,10.48a1.29,1.29,0,1,1-1.289,1.29A1.291,1.291,0,0,1,547.374,2490.68Z" transform="translate(-524 -2457)"/>
</svg>
