<svg xmlns="http://www.w3.org/2000/svg" width="41.31" height="41.09" viewBox="0 0 41.31 41.09">
  <defs>
    <style>
      .cls-1 {
        fill: #fff;
        fill-rule: evenodd;
      }
    </style>
  </defs>
  <path id="ins.svg" class="cls-1" d="M1389.78,5607.08a20.54,20.54,0,1,1,20.65-20.54A20.594,20.594,0,0,1,1389.78,5607.08Zm12.42-26.61a6.259,6.259,0,0,0-6.27-6.23h-12.31a6.257,6.257,0,0,0-6.26,6.23v12.25a6.25,6.25,0,0,0,6.26,6.23h12.31a6.252,6.252,0,0,0,6.27-6.23v-12.25Zm-6.27,15.79h-12.31a3.557,3.557,0,0,1-3.56-3.54v-12.25a3.557,3.557,0,0,1,3.56-3.54h12.31a3.559,3.559,0,0,1,3.57,3.54v12.25A3.559,3.559,0,0,1,1395.93,5596.26Zm-6.15-16.03a6.365,6.365,0,1,0,6.4,6.37A6.393,6.393,0,0,0,1389.78,5580.23Zm6.6-1.7a1.51,1.51,0,1,0,1.52,1.51A1.515,1.515,0,0,0,1396.38,5578.53Zm-6.6,11.74a3.675,3.675,0,1,1,3.69-3.67A3.692,3.692,0,0,1,1389.78,5590.27Z" transform="translate(-1369.13 -5566)"/>
</svg>
