<svg xmlns="http://www.w3.org/2000/svg" width="21" height="23" viewBox="0 0 21 23">
  <defs>
    <style>
      .cls-1 {
        fill-rule: evenodd;
        opacity: 0.3;
      }
    </style>
  </defs>
  <path id="like.svg" class="cls-1" d="M914.98,1418.23a4.084,4.084,0,0,0-2.849-.88c-0.422,0-.83.03-1.215,0.05a0.441,0.441,0,0,1-.139-0.03,1.8,1.8,0,0,0-.286-0.06,2.219,2.219,0,0,1-.981-0.38,14.237,14.237,0,0,1-1.585-1.76l-0.354-.44a9.917,9.917,0,0,1-1.834-2.88,4.474,4.474,0,0,1-.263-1.83c0-.13.013-0.26,0.019-0.38a3.773,3.773,0,0,0-.111-1.49,1.606,1.606,0,0,0-1.615-1.15,2.513,2.513,0,0,0-1.509.52,4.712,4.712,0,0,0-1.826,3.69,6.01,6.01,0,0,0,.5,2.38,5.563,5.563,0,0,1,.448,1.9c0,1-.875,1.27-2.11,1.55-0.134.03-.268,0.06-0.372,0.09-0.141.03-.285,0.05-0.431,0.07a5.084,5.084,0,0,0-2.734,1.04,2.7,2.7,0,0,0-.7,2.35,2.181,2.181,0,0,0,.879,1.46,2.8,2.8,0,0,0,1.277,2.97,2.317,2.317,0,0,0,.267,1.54,2.666,2.666,0,0,0,1.336,1.23,2.247,2.247,0,0,0,1.749,2.13,4.95,4.95,0,0,0,.986.09,14.161,14.161,0,0,0,1.607-.12c0.175-.02.349-0.04,0.551-0.06,0.309-.07.631-0.11,0.955-0.15a7.435,7.435,0,0,0,1.983-.43,8.165,8.165,0,0,0,1.384-.85c0.141-.1.279-0.2,0.421-0.3a5.084,5.084,0,0,0,.424-0.36,1.906,1.906,0,0,1,.753-0.52c0.221-.04.432-0.06,0.635-0.08,0.229-.03.448-0.05,0.665-0.09h0.107c0.229,0,.48.01,0.741,0.02,0.3,0.02.6,0.04,0.909,0.04a2.812,2.812,0,0,0,2.3-.83c0.894-1.04,1.023-2.63,1.029-4.19v-0.07C916.006,1420.87,916.016,1419.14,914.98,1418.23Zm-3.4,6.28a1.582,1.582,0,0,1-1.643,1.25,1.829,1.829,0,0,0-1.007.21,2.365,2.365,0,0,0-.92.61,3.116,3.116,0,0,1-.3.26c-0.127.09-.256,0.19-0.388,0.29a8.836,8.836,0,0,1-1.176.78c-0.224.05-.476,0.11-0.73,0.16l-0.49.11c-1.028.19-2.092,0.28-3.094,0.37a4.079,4.079,0,0,1-1.035-.09,0.582,0.582,0,0,1-.434-0.27,0.9,0.9,0,0,1-.036-0.77,0.562,0.562,0,0,0-.041-0.55,0.926,0.926,0,0,0-.752-0.36h-0.067a0.268,0.268,0,0,1-.088.01,0.73,0.73,0,0,1-.574-0.45,1.093,1.093,0,0,1-.078-0.99,0.639,0.639,0,0,0,.069-0.7,0.665,0.665,0,0,0-.494-0.38,1.355,1.355,0,0,1-.935-0.88,1.139,1.139,0,0,1,.094-0.96,0.924,0.924,0,0,0,.1-0.81,0.7,0.7,0,0,0-.5-0.41,0.781,0.781,0,0,1-.637-0.75,1.2,1.2,0,0,1,.757-1.17,6.611,6.611,0,0,1,2.108-.58,11.821,11.821,0,0,0,1.183-.23,2.954,2.954,0,0,0,2.348-2.51,5.928,5.928,0,0,0-.478-2.41,6.27,6.27,0,0,1-.457-1.89,3.976,3.976,0,0,1,.514-1.96,2.173,2.173,0,0,1,1.348-1.07,0.135,0.135,0,0,1,.064.01c0.277,0.04.269,0.55,0.238,1.03l-0.007.12a7.44,7.44,0,0,0,.125,2.23,8.047,8.047,0,0,0,1.446,2.72q0.19,0.255.384,0.54a23.273,23.273,0,0,0,2.009,2.44,2.572,2.572,0,0,0,.493.49,0.326,0.326,0,0,0,.187.16,3.514,3.514,0,0,0,1.62.67,1.416,1.416,0,0,1,1.066.49,5.188,5.188,0,0,1,.425,2.45l0,0.19A9.416,9.416,0,0,1,911.577,1424.51Zm2.966-2.73v0.31a5.745,5.745,0,0,1-.663,3.26,1.271,1.271,0,0,1-1.141.32H912.68a5.947,5.947,0,0,0,.5-1.97,13.873,13.873,0,0,0-.041-3.42,4.682,4.682,0,0,0-.4-1.47,2.36,2.36,0,0,1,1.236.45C914.562,1419.75,914.551,1420.97,914.543,1421.78Z" transform="translate(-895 -1407)"/>
</svg>
