<svg xmlns="http://www.w3.org/2000/svg" width="19.94" height="28.719" viewBox="0 0 19.94 28.719">
  <defs>
    <style>
      .cls-1 {
        fill-rule: evenodd;
      }
    </style>
  </defs>
  <path id="loc.svg" class="cls-1" d="M1061.97,111a10.117,10.117,0,0,0-8.48,15.4l7.91,12.913a0.843,0.843,0,0,0,.71.4h0.01a0.818,0.818,0,0,0,.7-0.409l7.72-13.037a10.167,10.167,0,0,0,1.4-5.171A10.042,10.042,0,0,0,1061.97,111Zm7.14,14.4-7.01,11.853-7.2-11.739a8.482,8.482,0,0,1-1.25-4.421A8.32,8.32,0,1,1,1069.11,125.4Zm-7.14-9.354a5.047,5.047,0,1,0,4.99,5.047A5.017,5.017,0,0,0,1061.97,116.046Zm0,8.423a3.376,3.376,0,1,1,3.33-3.376A3.356,3.356,0,0,1,1061.97,124.469Z" transform="translate(-1052 -111)"/>
</svg>
