<svg xmlns="http://www.w3.org/2000/svg" width="33" height="17" viewBox="0 0 33 17">
  <defs>
    <style>
      .cls-1 {
        fill: #fff;
        fill-rule: evenodd;
      }
    </style>
  </defs>
  <path id="mburger.svg" class="cls-1" d="M706.5,27h30a1.5,1.5,0,0,1,1.5,1.5h0a1.5,1.5,0,0,1-1.5,1.5h-30a1.5,1.5,0,0,1-1.5-1.5h0A1.5,1.5,0,0,1,706.5,27Zm0,7h30a1.5,1.5,0,1,1,0,3h-30A1.5,1.5,0,1,1,706.5,34Zm0,7h30a1.5,1.5,0,0,1,1.5,1.5h0a1.5,1.5,0,0,1-1.5,1.5h-30a1.5,1.5,0,0,1-1.5-1.5h0A1.5,1.5,0,0,1,706.5,41Z" transform="translate(-705 -27)"/>
</svg>
