<svg xmlns="http://www.w3.org/2000/svg" width="46" height="45" viewBox="0 0 46 45">
  <defs>
    <style>
      .cls-1 {
        fill: #3556d3;
        fill-rule: evenodd;
      }
    </style>
  </defs>
  <path id="ping.svg" class="cls-1" d="M981.512,2477.05h-3.378a15.356,15.356,0,0,0-6.334-7.17l-0.013-5.19a1.486,1.486,0,0,0-2.2-1.3l-3.915,2.16a9.669,9.669,0,1,0-19.019,3.32,15.408,15.408,0,0,0-3.237,26.8v4.84A1.491,1.491,0,0,0,944.9,2502h7.483a1.491,1.491,0,0,0,1.487-1.49v-1.95h8.65l-0.007,1.94A1.49,1.49,0,0,0,964,2502h7.039a1.49,1.49,0,0,0,1.487-1.49v-4.52a15.422,15.422,0,0,0,6.322-8.75h2.664a1.491,1.491,0,0,0,1.488-1.49v-7.21A1.484,1.484,0,0,0,981.512,2477.05Zm-25.445-17.07a6.7,6.7,0,0,1,6.6,7.82c0,0.02-.006.03-0.009,0.05A6.7,6.7,0,1,1,956.067,2459.98Zm23.958,24.28h-2.36a1.489,1.489,0,0,0-1.462,1.21,12.41,12.41,0,0,1-5.917,8.41,1.5,1.5,0,0,0-.734,1.28v3.86h-4.059l0.007-1.94a1.49,1.49,0,0,0-1.487-1.5H952.384a1.491,1.491,0,0,0-1.487,1.49l0,1.95h-4.509v-4.14a1.476,1.476,0,0,0-.684-1.25,12.432,12.432,0,0,1,2.06-22,9.537,9.537,0,0,0,1.337,1.75h-1.215a1.49,1.49,0,0,0,0,2.98h16.365a1.49,1.49,0,0,0,0-2.98h-1.215a9.669,9.669,0,0,0,2.4-4.31l3.38-1.86,0.01,3.56a1.479,1.479,0,0,0,.811,1.32,12.407,12.407,0,0,1,6.078,6.94,1.487,1.487,0,0,0,1.4,1h2.9v4.23h0Z" transform="translate(-937 -2457)"/>
</svg>
