<svg xmlns="http://www.w3.org/2000/svg" width="28.37" height="28.687" viewBox="0 0 28.37 28.687">
  <defs>
    <style>
      .cls-1 {
        fill-rule: evenodd;
      }
    </style>
  </defs>
  <path id="tel.svg" class="cls-1" d="M1405.27,132.468l-3.52-3.568a2.48,2.48,0,0,0-3.53,0l-1.6,1.622a1.876,1.876,0,0,1-2.67,0l-6.95-7.035a1.942,1.942,0,0,1,0-2.7c0.26-.261,1-1.011,1.61-1.621a2.552,2.552,0,0,0,0-3.569l-3.53-3.555a2.47,2.47,0,0,0-3.52,0c-0.73.728-.96,0.962-1.28,1.289a9.174,9.174,0,0,0,0,12.864l11,11.143a8.906,8.906,0,0,0,12.71,0l1.28-1.3A2.55,2.55,0,0,0,1405.27,132.468Zm-22.54-19.24a0.83,0.83,0,0,1,1.18,0l3.52,3.555a0.838,0.838,0,0,1,0,1.189l-0.59.595-4.69-4.754Zm9.72,22.915-11-11.142a7.463,7.463,0,0,1-.46-9.978l4.68,4.739a3.627,3.627,0,0,0,.16,4.914l6.94,7.034h0a3.522,3.522,0,0,0,4.86.156l4.68,4.74A7.229,7.229,0,0,1,1392.45,136.143Zm11.65-1.3-0.59.595-4.7-4.757,0.59-.595a0.82,0.82,0,0,1,1.17,0l3.53,3.568A0.856,0.856,0,0,1,1404.1,134.845Z" transform="translate(-1377.66 -111.313)"/>
</svg>
