<svg xmlns="http://www.w3.org/2000/svg" width="41.31" height="41.09" viewBox="0 0 41.31 41.09">
  <defs>
    <style>
      .cls-1 {
        fill: #fff;
        fill-rule: evenodd;
      }
    </style>
  </defs>
  <path id="twit.svg" class="cls-1" d="M1439.34,5608a20.545,20.545,0,1,1,20.66-20.55A20.6,20.6,0,0,1,1439.34,5608Zm11.99-28.27a9.952,9.952,0,0,1-3.13,1.19,4.99,4.99,0,0,0-3.61-1.55,4.917,4.917,0,0,0-4.93,4.91,5.126,5.126,0,0,0,.12,1.12,14.011,14.011,0,0,1-10.17-5.13,4.836,4.836,0,0,0-.67,2.47,4.9,4.9,0,0,0,2.2,4.09,5,5,0,0,1-2.24-.62v0.06a4.922,4.922,0,0,0,3.96,4.82,5.035,5.035,0,0,1-1.3.17,4.731,4.731,0,0,1-.93-0.09,4.94,4.94,0,0,0,4.61,3.41,9.9,9.9,0,0,1-6.13,2.1,11.509,11.509,0,0,1-1.18-.06,14.067,14.067,0,0,0,7.57,2.2,13.913,13.913,0,0,0,14.05-13.97c0-.21-0.01-0.42-0.02-0.63a9.939,9.939,0,0,0,2.46-2.55,9.885,9.885,0,0,1-2.83.78A4.935,4.935,0,0,0,1451.33,5579.73Z" transform="translate(-1418.69 -5566.91)"/>
</svg>
