<svg xmlns="http://www.w3.org/2000/svg" width="23.03" height="14.06" viewBox="0 0 23.03 14.06">
  <defs>
    <style>
      .cls-1 {
        fill: #fff;
        fill-rule: evenodd;
      }
    </style>
  </defs>
  <path id="up.svg" class="cls-1" d="M1555.38,5733.36a2.072,2.072,0,0,1-2.99,0l-7.9-8.1-7.91,8.1a2.06,2.06,0,0,1-2.98,0,2.191,2.191,0,0,1,0-3.06l9.12-9.35a2.464,2.464,0,0,1,.22-0.34,2.222,2.222,0,0,1,3.1,0,3.956,3.956,0,0,1,.22.34l9.12,9.35A2.211,2.211,0,0,1,1555.38,5733.36Z" transform="translate(-1533 -5719.97)"/>
</svg>
