<svg xmlns="http://www.w3.org/2000/svg" width="16" height="14" viewBox="0 0 16 14">
  <defs>
    <style>
      .cls-1 {
        fill: #000;
        fill-rule: evenodd;
      }
    </style>
  </defs>
  <path id="next.svg" class="cls-1" d="M413.98,540.8a1.07,1.07,0,0,1,.022.11,1.088,1.088,0,0,1,0,.128,0.987,0.987,0,0,1-.059.3s0,0,0,.006a0.978,0.978,0,0,1-.221.364l-5.97,5.969a1.012,1.012,0,0,1-1.431-1.431l4.286-4.285H399a1,1,0,0,1,0-2h11.569l-4.254-4.254a1.012,1.012,0,1,1,1.431-1.431l5.97,5.97a0.938,0.938,0,0,1,.06.09l0.008,0.012A0.971,0.971,0,0,1,413.98,540.8Z" transform="translate(-398 -534)"/>
</svg>
