<svg xmlns="http://www.w3.org/2000/svg" width="16" height="14" viewBox="0 0 16 14">
  <defs>
    <style>
      .cls-1 {
        fill: #000;
        fill-rule: evenodd;
      }
    </style>
  </defs>
  <path id="prev.svg" class="cls-1" d="M365,542H353.4l4.285,4.285a1.012,1.012,0,0,1-1.431,1.43l-5.969-5.969a0.978,0.978,0,0,1-.221-0.364,0.026,0.026,0,0,0,0,0,1,1,0,0,1-.059-0.3,1.088,1.088,0,0,1,0-.128,1,1,0,0,1,.021-0.109,0.979,0.979,0,0,1,.2-0.449l0.008-.013a1,1,0,0,1,.06-0.09l5.969-5.969a1.012,1.012,0,0,1,1.431,1.431L353.431,540H365A1,1,0,0,1,365,542Z" transform="translate(-350 -534.031)"/>
</svg>
