<svg xmlns="http://www.w3.org/2000/svg" width="41.31" height="41.09" viewBox="0 0 41.31 41.09">
  <defs>
    <style>
      .cls-1 {
        fill: #fff;
        fill-rule: evenodd;
      }
    </style>
  </defs>
  <path id="wk.svg" class="cls-1" d="M1290.65,5608a20.545,20.545,0,1,1,20.65-20.55A20.6,20.6,0,0,1,1290.65,5608Zm13.03-25.75c-0.2-.55-1.43-0.41-1.43-0.41l-4.08.03a0.928,0.928,0,0,0-.52.09,1.122,1.122,0,0,0-.36.44,23.645,23.645,0,0,1-1.51,3.16c-1.81,3.07-2.54,3.23-2.84,3.04-0.69-.45-0.51-1.79-0.51-2.74,0-2.97.45-4.21-.89-4.53a6.753,6.753,0,0,0-1.9-.19,8.91,8.91,0,0,0-3.38.35c-0.47.22-.82,0.73-0.61,0.75a1.865,1.865,0,0,1,1.21.61,3.824,3.824,0,0,1,.4,1.83s0.24,3.5-.56,3.94c-0.55.29-1.3-.32-2.92-3.1a25.7,25.7,0,0,1-1.46-3,1.246,1.246,0,0,0-.33-0.45,1.756,1.756,0,0,0-.63-0.25l-3.87.02a1.35,1.35,0,0,0-.8.27,0.836,0.836,0,0,0-.01.69s3.03,7.06,6.46,10.61a9.306,9.306,0,0,0,6.73,3.05h1.62a1.349,1.349,0,0,0,.74-0.32,1.176,1.176,0,0,0,.22-0.71s-0.03-2.16.98-2.48,2.27,2.09,3.63,3.02a2.539,2.539,0,0,0,1.8.54l3.62-.05s1.89-.11,1-1.6a12.435,12.435,0,0,0-2.7-3.09c-2.27-2.1-1.96-1.76.77-5.39C1303.22,5584.17,1303.88,5582.83,1303.68,5582.25Z" transform="translate(-1270 -5566.91)"/>
</svg>
